<?xml version="1.0" encoding="iso-8859-1"?>
<!-- Uploaded to: SVG Repo, www.svgrepo.com, Generator: SVG Repo Mixer Tools -->
<svg fill="#000000" height="800px" width="800px" version="1.1" id="Layer_1" xmlns="http://www.w3.org/2000/svg" xmlns:xlink="http://www.w3.org/1999/xlink" 
	 viewBox="0 0 512 512" xml:space="preserve">
<g>
	<g>
		<path d="M223.665,231.774c-3.091-8.539-12.521-12.956-21.059-9.862l-53.482,19.365l-43.888-32.464l39.999,15.652l4.066-1.472
			c0.652-13.276-9.42-24.704-22.744-25.65l-41.615-2.954c-14.248-1.011-26.361,10.344-26.253,24.642l0.878,115.534h-8.021
			L34.318,198.519c-1.195-9.439-9.816-16.11-19.254-14.925c-9.438,1.195-16.12,9.815-14.925,19.254l19.137,151.108
			c1.09,8.608,8.413,15.062,17.09,15.062h45.068v56.614H63.914c-3.046,0-5.967,1.21-8.121,3.364l-20.857,20.858
			c-4.485,4.485-4.484,11.756,0.001,16.241c4.485,4.485,11.755,4.485,16.241,0l17.494-17.494h47.003l17.494,17.495
			c4.485,4.484,11.756,4.484,16.241,0c4.484-4.485,4.484-11.756,0-16.241l-20.858-20.858c-2.154-2.153-5.075-3.364-8.121-3.364
			h-16.031v-56.616h40.936c5.278,0,9.996-2.38,13.155-6.118l2.987,0.772l11.315,88.556c1.382,10.823,11.28,18.456,22.074,17.072
			c10.81-1.381,18.453-11.264,17.072-22.074l-13.01-101.822c-1.024-8.009-6.823-14.587-14.641-16.604l-41.72-10.771l1.632-22.986
			c-6.864,0.158-13.466-2.941-17.734-8.312l-40.789-51.479l50.976,37.707c4.363,3.227,10.126,4.143,15.378,2.241l61.771-22.367
			C222.342,249.741,226.757,240.312,223.665,231.774z"/>
	</g>
</g>
<g>
	<g>
		<circle cx="114.283" cy="141.656" r="36.294"/>
	</g>
</g>
<g>
	<g>
		<path d="M323.368,288.411l0.03-5.954h-98.487c-9.514,0-17.226,7.713-17.226,17.226c0,9.312,7.395,16.88,16.631,17.196v141.095
			c0,6.343,5.141,11.484,11.484,11.484c6.343,0,11.484-5.141,11.484-11.484V317.788h93.649
			C330.407,312.19,323.304,301.107,323.368,288.411z"/>
	</g>
</g>
<g>
	<g>
		<path d="M322.077,196.638c-5.559-3.048-12.542-1.009-15.589,4.554l-26.676,48.69c-18.139,0-29.578,0-47.777,0
			c-6.343,0-11.484,5.141-11.484,11.484c0,6.322,5.128,11.484,11.484,11.484h54.581c4.195,0,8.056-2.287,10.072-5.967l27.037-49.35
			l0.099-19.711C323.286,197.385,322.708,196.983,322.077,196.638z"/>
	</g>
</g>
<g>
	<g>
		<path d="M425.886,42.538c-19.407,0-35.138,15.732-35.138,35.138c0,19.438,15.785,35.138,35.138,35.138
			c19.223,0,35.138-15.58,35.138-35.138C461.024,58.27,445.293,42.538,425.886,42.538z"/>
	</g>
</g>
<g>
	<g>
		<path d="M504.461,320.998v-18.327c4.568-3.058,7.567-8.27,7.538-14.178l-0.627-124.556c-0.11-22.012-18.108-39.92-40.122-39.92
			h-17.377c-13.627,35.602-7.275,19.006-21.017,54.908c5.347-25.19,5.907-25.134,4.243-28.16l-6.805-12.376l6.05-11.003
			c0.901-1.638-0.286-3.649-2.158-3.649h-16.604c-1.869,0-3.06,2.009-2.158,3.649l6.05,11.003l-6.83,12.422
			c-0.792,1.44-1.051,3.114-0.73,4.727l4.333,23.387c-10.202-26.165-12.277-33.052-20.799-54.908h-17.214
			c-22.013,0-40.012,17.908-40.122,39.92l-0.627,124.556c-0.046,9.363,7.506,16.992,16.87,17.039c0.029,0,0.058,0,0.087,0
			c9.323,0,16.905-7.535,16.951-16.869l0.626-124.556c0.01-1.806,1.479-3.262,3.283-3.257c1.805,0.006,3.264,1.47,3.264,3.274
			c0.001,41.414,0.008,276.531,0.008,284.99c0,11.348,9.284,20.345,20.345,20.345c11.237,0,20.345-9.109,20.345-20.345
			c0-16.323,0-146.671,0-162.621h8.785c0,6.465,0,152.77,0,162.621c0,11.237,9.109,20.345,20.345,20.345s20.345-9.109,20.345-20.345
			c0-76.261-0.349-206.116-0.367-285.093c0-1.959,1.587-3.548,3.547-3.548c1.96,0,3.548,1.587,3.548,3.547c0,0.029,0,0.058,0,0.087
			l0.626,124.556c0.029,5.82,2.987,10.938,7.47,13.969v18.091c-4.646,0.559-8.249,4.507-8.249,9.305v60.617
			c0,5.179,4.199,9.378,9.378,9.378h15.26c5.18,0,9.378-4.199,9.378-9.378v-60.617C511.331,325.718,508.421,322.097,504.461,320.998
			z"/>
	</g>
</g>
</svg>